<?xml version="1.0" standalone="no"?>
<!DOCTYPE svg PUBLIC "-//W3C//DTD SVG 20010904//EN"
 "http://www.w3.org/TR/2001/REC-SVG-20010904/DTD/svg10.dtd">
<svg version="1.0" xmlns="http://www.w3.org/2000/svg"
 width="921.000000pt" height="921.000000pt" viewBox="0 0 921.000000 921.000000"
 preserveAspectRatio="xMidYMid meet">
<metadata>
Created by potrace 1.14, written by Peter Selinger 2001-2017
</metadata>
<g transform="translate(0.000000,921.000000) scale(0.100000,-0.100000)"
fill="#000000" stroke="none">
<path d="M3630 6189 c0 -5 -5 -7 -12 -3 -8 5 -9 2 -5 -9 4 -10 2 -16 -6 -14
-7 1 -12 -5 -12 -13 0 -8 -4 -18 -10 -22 -6 -5 -5 -8 3 -8 10 0 10 -3 0 -14
-7 -8 -17 -11 -23 -8 -5 3 -4 -2 4 -11 12 -15 11 -17 -5 -18 -11 0 -14 -3 -6
-6 6 -2 12 -9 12 -14 0 -6 -4 -7 -10 -4 -5 3 -10 -3 -10 -14 0 -12 -6 -21 -12
-21 -9 0 -8 -4 2 -10 11 -7 11 -10 2 -10 -7 0 -10 -4 -7 -10 3 -5 0 -7 -8 -4
-10 3 -16 -5 -21 -26 -3 -17 -9 -29 -14 -26 -4 2 -9 -3 -10 -12 -5 -50 -9 -66
-17 -62 -4 3 -12 -5 -16 -18 -6 -15 -13 -21 -21 -16 -10 5 -10 4 -1 -6 9 -10
8 -16 -3 -27 -8 -8 -12 -19 -9 -24 4 -5 2 -9 -4 -9 -6 0 -8 -6 -5 -14 3 -7 -2
-16 -11 -20 -9 -3 -13 -10 -10 -16 3 -5 1 -10 -5 -10 -6 0 -8 -4 -5 -10 3 -5
-2 -10 -12 -11 -10 0 -13 -3 -5 -6 6 -2 12 -9 12 -14 0 -6 -4 -7 -10 -4 -5 3
-10 -2 -10 -12 0 -11 -6 -25 -12 -32 -11 -11 -10 -13 2 -7 8 4 4 -2 -10 -14
-14 -12 -18 -18 -10 -14 12 6 13 5 3 -7 -6 -8 -12 -18 -13 -24 -1 -5 -7 -9
-13 -7 -6 2 -4 -5 4 -14 8 -10 10 -15 4 -12 -5 3 -16 0 -23 -8 -8 -9 -9 -14
-2 -14 6 0 8 -5 5 -10 -4 -6 -11 -8 -16 -4 -5 3 -8 2 -7 -3 4 -14 -13 -53 -23
-53 -5 0 -9 -5 -9 -11 0 -5 5 -7 12 -3 7 4 8 3 4 -5 -4 -6 -12 -9 -17 -6 -5 4
-9 1 -9 -5 0 -6 -5 -8 -12 -4 -9 5 -9 2 1 -9 9 -12 10 -17 2 -17 -7 0 -9 -4
-6 -10 3 -5 2 -10 -2 -10 -5 0 -18 -7 -29 -16 -10 -8 -13 -13 -6 -9 18 9 15
-6 -5 -22 -11 -8 -12 -11 -3 -7 12 7 13 5 3 -8 -7 -8 -10 -18 -6 -21 3 -4 1
-7 -6 -7 -7 0 -10 -4 -6 -9 3 -5 -1 -16 -9 -24 -8 -8 -12 -17 -9 -21 4 -3 -1
-6 -10 -6 -11 0 -15 -7 -12 -20 2 -11 0 -18 -4 -15 -10 5 -24 -20 -26 -45 0
-8 -6 -14 -12 -13 -7 2 -10 -6 -8 -17 2 -11 -1 -20 -6 -20 -6 0 -8 -4 -4 -9 3
-5 0 -13 -6 -16 -5 -4 -8 -13 -5 -21 3 -8 0 -11 -10 -7 -13 5 -21 -21 -14 -52
1 -5 -2 -7 -6 -3 -12 12 -35 -28 -27 -48 5 -13 3 -15 -7 -9 -10 6 -12 4 -7 -8
4 -10 2 -17 -4 -17 -6 0 -8 -7 -5 -16 3 -8 2 -12 -3 -9 -14 8 -41 -35 -34 -53
4 -10 2 -13 -5 -8 -11 6 -17 -12 -13 -36 0 -5 -3 -8 -8 -8 -5 0 -8 -8 -6 -17
1 -10 -7 -24 -19 -31 -20 -12 -20 -13 -1 -8 20 6 20 6 1 -9 -11 -8 -16 -15
-10 -15 5 0 1 -5 -9 -11 -9 -6 -14 -15 -11 -21 5 -8 1 -9 -10 -5 -14 6 -15 3
-6 -13 7 -14 7 -20 0 -20 -5 0 -10 -7 -10 -16 0 -9 -5 -12 -12 -8 -8 5 -9 2
-5 -9 4 -10 2 -17 -4 -17 -6 0 -9 -7 -5 -15 3 -8 1 -15 -4 -15 -6 0 -10 -7
-10 -15 0 -8 -5 -15 -11 -15 -6 0 -9 -9 -6 -19 3 -13 0 -18 -8 -15 -7 3 -15
-2 -19 -11 -4 -11 -2 -14 7 -9 6 4 3 -3 -8 -15 -11 -13 -19 -25 -17 -27 1 -2
2 -7 2 -11 0 -5 -5 -1 -10 7 -6 9 -10 10 -10 3 0 -6 4 -15 10 -18 13 -8 -11
-46 -25 -38 -5 3 -4 0 3 -8 10 -11 8 -17 -10 -32 -19 -16 -20 -18 -4 -13 16 5
17 4 6 -9 -7 -8 -17 -12 -24 -8 -6 4 -5 -1 3 -10 9 -12 10 -17 2 -17 -7 0 -9
-4 -6 -10 3 -5 1 -10 -6 -10 -8 0 -7 -5 2 -17 10 -11 10 -14 2 -9 -21 12 -36
-3 -21 -22 7 -10 8 -14 4 -10 -11 10 -35 -21 -36 -45 0 -12 -4 -16 -12 -11 -8
5 -7 0 2 -11 8 -10 11 -16 5 -13 -5 3 -16 0 -23 -8 -8 -9 -9 -14 -2 -14 7 0 4
-7 -4 -16 -9 -8 -16 -27 -16 -40 0 -14 -4 -23 -8 -20 -4 2 -20 -15 -34 -39
-20 -33 -23 -46 -15 -55 9 -10 9 -11 0 -6 -12 7 -19 -12 -14 -38 1 -5 -6 -3
-15 5 -10 8 -15 9 -11 3 4 -6 0 -26 -9 -43 -9 -18 -13 -38 -10 -46 3 -9 0 -12
-8 -9 -8 3 -17 1 -21 -5 -3 -6 0 -11 7 -11 10 0 10 -2 -1 -9 -8 -5 -10 -14 -6
-21 5 -8 4 -11 -3 -6 -6 3 -16 -7 -24 -24 -7 -16 -17 -30 -21 -30 -5 0 -5 -5
-2 -10 4 -6 1 -17 -5 -25 -6 -8 -8 -20 -4 -27 6 -11 5 -11 -8 0 -13 10 -18 10
-24 1 -4 -7 -3 -9 4 -5 7 4 10 -1 9 -14 -1 -10 -7 -22 -14 -24 -7 -3 -13 -13
-13 -21 0 -10 -5 -13 -12 -9 -8 5 -9 2 -5 -9 4 -12 1 -17 -11 -17 -10 0 -13
-3 -7 -8 6 -4 11 -13 13 -21 3 -12 1 -12 -14 0 -10 8 -15 9 -11 3 3 -6 -3 -25
-14 -43 -11 -18 -15 -30 -9 -26 5 3 10 1 10 -4 0 -11 -13 -15 -35 -12 -5 1 -2
-5 7 -12 10 -8 14 -18 10 -22 -4 -4 2 -6 14 -3 12 3 28 1 37 -3 10 -6 18 -5
22 1 5 8 11 7 21 -1 11 -9 14 -9 14 1 0 9 7 7 20 -5 19 -17 20 -17 14 -2 -5
15 -3 16 19 8 18 -7 27 -7 31 2 3 9 5 9 5 0 1 -7 6 -13 12 -13 5 0 7 5 3 12
-5 7 -3 8 5 3 19 -11 91 -11 91 0 0 6 5 3 10 -5 8 -12 11 -13 19 -1 5 8 11 9
15 3 4 -7 17 -7 36 -2 19 5 28 5 25 -1 -4 -5 -2 -9 4 -9 5 0 12 6 14 13 4 9 6
9 6 0 1 -7 6 -13 12 -13 5 0 7 5 3 12 -4 7 -3 8 5 4 20 -13 61 -14 61 -3 0 7
4 7 12 -1 15 -15 31 -16 22 0 -4 7 -3 8 5 4 19 -12 81 -15 81 -4 0 7 5 6 14
-1 11 -9 15 -9 19 1 4 10 6 10 6 1 1 -7 6 -13 12 -13 5 0 7 5 3 12 -5 7 -3 8
5 3 19 -11 91 -11 91 0 0 6 5 3 10 -5 8 -12 11 -13 19 -1 5 8 11 9 15 3 4 -7
17 -7 36 -2 19 5 28 5 25 -1 -4 -5 -1 -9 4 -9 6 0 11 5 11 10 0 6 8 10 18 10
14 0 15 2 2 10 -13 9 -7 14 13 11 4 0 7 8 7 20 0 13 4 18 13 13 7 -5 6 0 -3
11 -8 10 -10 16 -3 12 11 -7 26 7 29 28 0 6 2 16 2 23 1 7 7 10 12 7 14 -9 12
9 -2 24 -11 10 -9 11 6 5 12 -5 17 -4 13 3 -4 5 1 19 9 29 9 10 12 13 8 5 -4
-9 -3 -12 4 -7 14 9 3 38 -12 30 -6 -3 -2 3 10 13 11 10 19 24 17 30 -2 6 1
15 8 19 8 5 9 3 4 -6 -5 -8 -4 -11 3 -7 5 4 9 18 7 32 -2 22 5 30 27 26 4 0 5
5 2 13 -3 8 0 17 6 21 9 6 9 10 -1 16 -11 7 -11 9 -1 9 7 0 10 4 7 10 -3 5 0
7 8 4 7 -2 14 1 15 8 4 47 22 80 41 73 13 -5 13 -4 4 6 -10 10 -9 15 5 26 9 8
11 12 5 8 -7 -3 -13 -3 -13 2 0 12 20 39 20 28 0 -5 5 -3 10 5 5 8 7 23 4 34
-4 10 -2 16 2 13 5 -3 15 1 22 9 7 8 10 14 8 14 -3 0 3 16 14 36 12 21 15 33
8 29 -7 -4 -5 0 5 8 10 8 19 24 20 36 1 11 7 23 14 25 7 3 13 14 13 24 0 11
10 27 23 36 12 9 16 14 10 11 -7 -3 -13 -1 -13 4 0 6 4 11 9 11 8 0 19 27 17
40 -2 10 29 38 37 33 4 -2 7 1 7 7 0 6 5 8 10 5 6 -3 10 -1 10 6 0 7 9 2 20
-11 11 -12 17 -27 14 -31 -3 -5 2 -9 11 -9 13 0 14 -4 5 -20 -9 -16 -8 -19 6
-13 12 4 15 2 12 -8 -3 -8 2 -20 11 -27 13 -11 13 -12 1 -7 -8 4 -4 -3 9 -14
13 -12 17 -21 10 -21 -8 0 -5 -6 7 -16 10 -8 12 -13 4 -9 -10 4 -9 2 3 -8 9
-8 17 -22 17 -31 0 -9 6 -19 14 -22 8 -3 12 -12 10 -19 -3 -7 0 -16 5 -20 6
-3 9 -11 6 -16 -4 -5 -1 -9 6 -9 7 0 10 -3 6 -6 -3 -4 1 -13 9 -21 8 -8 11
-19 8 -25 -4 -7 -2 -8 4 -4 7 4 12 1 12 -8 0 -9 4 -16 9 -16 10 0 27 -39 23
-54 -2 -5 3 -6 11 -3 10 4 13 -2 11 -18 -1 -13 5 -32 13 -42 8 -10 11 -12 7
-4 -4 9 -3 12 4 8 5 -4 9 -18 8 -32 -2 -13 0 -22 4 -20 5 3 11 -2 14 -11 4
-10 2 -13 -7 -9 -6 4 -4 0 6 -8 9 -8 17 -20 17 -26 0 -7 5 -9 12 -5 6 4 8 3 4
-4 -3 -5 5 -23 18 -39 18 -22 22 -33 15 -46 -10 -16 -1 -22 24 -18 4 1 3 -8
-4 -20 -9 -17 -8 -20 2 -14 9 6 11 3 6 -8 -3 -9 -1 -19 5 -23 7 -5 8 -2 3 6
-6 9 -4 11 4 6 7 -5 10 -14 7 -22 -3 -8 -1 -14 3 -14 5 0 7 -9 4 -20 -3 -11
-1 -20 4 -20 5 0 17 -14 27 -31 13 -23 15 -30 5 -25 -8 4 -6 1 3 -7 10 -8 14
-17 10 -21 -4 -4 -2 -6 3 -5 6 2 20 -2 32 -9 17 -9 22 -9 26 1 4 9 6 9 6 -1 1
-10 6 -10 22 -1 15 8 19 8 15 0 -4 -6 -3 -11 3 -11 5 0 12 6 14 13 4 10 6 10
6 0 1 -7 6 -13 12 -13 5 0 7 5 3 12 -4 7 -3 8 5 4 20 -13 61 -14 61 -3 0 7 4
7 12 -1 15 -15 31 -16 22 0 -4 7 -3 8 5 4 19 -12 81 -15 81 -4 0 6 7 5 16 -3
13 -10 17 -10 24 0 5 9 10 10 14 2 4 -6 12 -11 17 -11 6 0 7 5 3 12 -4 7 -3 8
5 4 19 -12 81 -15 81 -4 0 7 5 6 14 -1 11 -9 15 -9 19 1 4 10 6 10 6 1 1 -7 6
-13 12 -13 5 0 7 5 3 12 -5 7 -3 8 5 3 19 -11 91 -11 91 0 0 6 5 3 10 -5 8
-12 11 -13 19 -1 5 8 11 9 15 3 4 -7 17 -7 36 -2 19 5 28 5 25 -1 -4 -5 -2 -9
4 -9 5 0 12 6 14 13 4 10 6 10 6 0 1 -7 6 -13 12 -13 5 0 7 5 3 12 -4 7 -3 8
5 4 20 -13 61 -14 61 -3 0 7 4 7 12 -1 15 -15 32 -16 22 -1 -4 7 1 7 16 -1 18
-9 24 -9 30 0 6 9 9 9 15 1 5 -9 10 -9 21 0 7 6 11 16 7 22 -4 6 0 8 11 4 10
-4 15 -3 11 3 -3 6 0 10 7 10 11 0 10 2 0 9 -11 6 -10 10 3 15 12 4 16 14 12
32 -3 18 -1 22 6 15 6 -6 16 -11 22 -11 5 0 3 5 -5 11 -11 8 -12 12 -2 16 6 2
12 15 12 28 0 12 7 26 16 29 8 3 12 10 9 16 -3 5 -1 10 5 10 7 0 10 7 6 15 -3
9 0 15 10 15 12 0 13 4 3 23 -11 20 -11 21 4 9 13 -11 15 -10 9 10 -5 19 -3
21 9 11 13 -10 15 -8 14 15 0 17 7 31 20 39 11 7 14 12 7 13 -7 0 -10 5 -7 10
4 6 10 8 14 6 4 -3 8 1 8 9 0 8 -4 12 -8 9 -4 -2 -11 0 -14 6 -4 6 -1 9 7 8 7
-2 12 3 10 11 -3 12 -1 12 14 0 13 -10 16 -10 10 -1 -4 7 -3 18 2 25 5 7 8 20
7 30 -2 9 1 15 6 11 5 -3 9 0 9 6 0 6 5 8 11 4 8 -5 8 -1 0 14 -11 21 0 39 17
28 4 -2 9 4 10 15 4 43 6 49 14 49 5 0 6 5 2 12 -5 7 -2 9 9 5 11 -4 15 -1 12
14 -2 10 0 19 6 19 5 0 9 7 9 15 0 8 4 15 9 15 6 0 8 9 6 20 -3 13 0 18 7 14
7 -5 9 2 6 19 -5 24 -3 25 16 15 17 -9 19 -8 9 3 -15 16 -17 33 -3 24 6 -3 10
5 10 18 0 14 7 28 16 31 8 3 12 10 9 16 -3 5 -1 10 5 10 7 0 9 7 6 16 -4 11
-2 15 8 11 10 -4 12 0 8 15 -4 16 -2 19 8 13 8 -5 11 -4 7 3 -8 12 2 42 14 42
4 0 6 -8 2 -17 -4 -12 0 -11 11 5 15 19 19 20 32 8 8 -8 14 -20 14 -26 0 -17
26 -40 36 -32 5 4 2 -1 -5 -10 -9 -12 -10 -18 -2 -18 6 0 11 -9 11 -20 0 -11
5 -20 10 -20 6 0 10 -10 10 -22 0 -19 2 -20 11 -8 9 12 10 11 6 -7 -4 -16 0
-23 10 -23 10 0 14 -6 10 -19 -3 -12 1 -22 9 -25 8 -3 14 -12 14 -21 0 -8 6
-15 13 -15 8 0 7 -4 -3 -10 -11 -7 -11 -10 -2 -10 7 0 10 -4 7 -10 -3 -5 1
-10 9 -10 10 0 16 -9 16 -26 0 -28 23 -57 36 -46 5 4 2 -1 -5 -10 -9 -12 -10
-18 -2 -18 6 0 11 -7 11 -16 0 -9 5 -12 13 -8 7 5 6 0 -3 -11 -9 -11 -10 -16
-2 -11 8 5 12 0 12 -13 0 -13 7 -21 18 -21 14 0 15 -2 2 -10 -13 -8 -13 -10 1
-10 15 0 17 -5 21 -49 1 -11 5 -18 8 -16 3 1 14 -9 25 -24 12 -16 14 -22 4
-16 -8 6 -7 3 3 -7 13 -12 15 -18 6 -21 -10 -4 -10 -6 0 -6 6 -1 12 -8 12 -16
0 -8 5 -15 10 -15 6 0 10 -12 10 -27 0 -23 2 -25 11 -13 9 12 10 11 6 -7 -4
-16 0 -23 10 -23 13 0 13 -2 2 -17 -10 -11 -10 -14 -1 -9 8 5 12 0 12 -16 0
-19 2 -20 11 -8 9 12 10 11 6 -7 -3 -16 0 -23 9 -23 8 0 14 -10 14 -26 0 -14
4 -23 9 -19 6 3 8 -4 6 -15 -2 -13 1 -20 11 -20 8 0 12 -4 9 -10 -3 -5 -1 -10
5 -10 6 0 8 -4 5 -10 -4 -6 1 -7 11 -3 12 5 15 3 9 -6 -6 -10 -3 -11 15 -1 15
8 20 8 16 1 -4 -6 -3 -11 3 -11 5 0 12 6 14 13 4 9 6 9 6 0 1 -7 6 -13 12 -13
5 0 7 5 3 12 -4 7 -3 8 5 4 20 -13 61 -14 61 -3 0 7 4 7 12 -1 15 -15 31 -16
22 0 -4 7 -3 8 5 4 18 -12 81 -15 81 -4 0 5 5 6 12 2 18 -12 58 -11 58 1 0 5
5 3 10 -5 8 -12 11 -13 19 -1 6 9 11 10 15 2 5 -8 13 -8 28 0 15 8 19 8 14 0
-4 -6 -2 -11 3 -11 6 0 11 6 11 13 0 7 3 8 8 2 10 -14 52 -14 52 -1 0 6 5 4
11 -4 8 -12 12 -12 16 -2 4 10 8 10 19 1 11 -9 14 -8 15 2 0 8 4 5 9 -6 l9
-20 0 20 c1 11 5 16 9 10 9 -13 72 -13 72 0 0 5 5 3 10 -5 8 -12 11 -13 19 -1
6 9 11 10 15 2 5 -8 13 -8 28 0 15 8 19 8 14 0 -4 -6 -2 -11 3 -11 6 0 11 6
11 13 0 7 3 8 8 2 10 -14 52 -14 52 -1 0 6 5 4 10 -4 9 -13 11 -13 20 0 8 13
10 12 11 -5 0 -15 2 -16 7 -5 4 8 18 15 31 15 20 0 25 6 26 27 1 15 -2 25 -7
22 -4 -3 -8 7 -8 21 0 15 -4 24 -10 20 -5 -3 -10 3 -10 14 0 11 -5 23 -12 27
-7 5 -8 3 -3 -6 5 -8 4 -11 -3 -7 -5 4 -8 17 -4 29 4 16 2 19 -9 13 -11 -7
-11 -5 1 10 8 10 11 16 5 13 -5 -3 -16 0 -23 8 -8 9 -9 14 -2 14 6 0 -1 11
-15 25 -28 29 -34 45 -9 24 9 -7 5 4 -10 25 -14 21 -23 42 -20 47 3 5 1 9 -4
9 -5 0 -15 14 -22 30 -7 17 -16 30 -21 30 -5 0 -9 5 -9 11 0 5 6 7 13 3 6 -4
3 2 -7 14 -11 12 -16 22 -12 22 4 0 1 6 -6 14 -7 8 -17 11 -23 8 -5 -2 -5 1 2
8 10 10 6 22 -20 54 -18 22 -26 37 -19 33 20 -13 14 4 -10 24 -11 11 -18 19
-14 19 3 0 -3 18 -14 40 -11 23 -18 46 -14 53 4 7 4 9 -1 5 -4 -4 -16 2 -26
14 -24 27 -24 35 -1 17 14 -11 13 -10 -2 9 -11 12 -16 22 -12 22 4 0 1 6 -6
14 -7 8 -17 11 -23 8 -5 -2 -5 1 2 8 10 10 6 22 -20 54 -18 22 -26 37 -19 33
20 -13 14 7 -8 23 -14 10 -16 16 -7 22 9 6 9 8 -1 8 -7 0 -10 5 -7 10 3 6 0
10 -8 10 -8 0 -18 7 -21 16 -3 8 -2 12 4 9 5 -3 2 7 -7 24 -10 16 -20 28 -24
25 -4 -2 -7 2 -6 9 1 31 -4 48 -12 42 -6 -3 -8 4 -6 15 2 11 0 18 -5 15 -5 -3
-11 -1 -15 5 -3 5 -1 10 5 10 7 0 6 5 -2 14 -7 8 -16 12 -20 10 -3 -2 -4 6 0
18 3 14 2 19 -6 14 -7 -4 -12 -2 -12 3 0 6 5 11 10 11 6 0 10 4 10 9 0 6 -9 8
-20 6 -13 -2 -18 0 -14 7 4 5 0 14 -7 19 -11 7 -11 9 -1 9 10 0 9 4 -2 16 -9
8 -13 20 -10 26 5 7 2 8 -6 3 -10 -6 -12 -4 -8 7 4 8 -4 26 -17 40 -18 20 -21
28 -12 37 9 10 9 12 -3 9 -10 -2 -14 3 -12 16 2 11 -1 15 -7 11 -7 -3 -11 3
-11 15 0 14 -4 19 -12 14 -8 -5 -7 0 2 11 8 10 11 16 5 13 -11 -6 -28 10 -33
31 -1 7 -9 20 -17 28 -20 20 -19 29 2 12 10 -8 7 0 -8 21 -13 19 -28 38 -34
42 -6 5 -4 8 5 8 10 0 11 3 3 8 -6 4 -13 14 -15 22 -2 8 -13 25 -25 37 -27 28
-30 41 -5 22 14 -11 13 -10 -2 9 -11 12 -16 22 -12 22 4 0 -5 11 -19 25 -29
30 -34 44 -7 24 9 -7 5 0 -9 16 -15 17 -24 36 -22 43 3 7 -4 21 -16 31 -12 10
-21 24 -21 30 0 16 -39 91 -56 109 -20 19 -17 27 4 11 16 -13 16 -13 -1 7 -9
11 -14 24 -10 27 3 4 1 7 -6 7 -7 0 -9 5 -5 12 5 8 2 9 -9 5 -9 -3 -16 -3 -16
1 1 4 1 21 0 37 -1 23 -3 27 -11 15 -8 -12 -10 -9 -10 13 0 18 -4 26 -11 21
-8 -5 -10 3 -7 24 4 27 2 30 -11 19 -10 -8 -13 -8 -8 0 4 6 0 19 -9 27 -8 9
-11 16 -4 16 6 0 0 11 -14 25 -14 14 -23 32 -20 40 4 8 1 15 -5 15 -6 0 -11 5
-11 11 0 6 -7 17 -15 26 -8 8 -13 19 -9 24 3 5 -2 16 -10 25 -9 9 -14 20 -10
25 3 5 -2 12 -11 15 -13 6 -14 8 -3 15 10 7 9 9 -3 9 -9 0 -20 7 -23 16 -3 8
-2 12 4 9 6 -3 10 -1 10 4 0 6 -6 11 -14 11 -9 0 -13 7 -11 20 2 13 -2 20 -11
20 -8 0 -13 4 -9 9 3 5 1 12 -4 16 -6 3 -7 13 -4 22 4 9 2 14 -3 10 -9 -5 -27
30 -36 68 -1 6 -12 20 -25 33 -27 27 -31 41 -6 21 10 -8 2 6 -17 31 -19 24
-29 41 -22 37 20 -13 14 7 -7 22 -11 8 -18 22 -16 31 6 29 -35 16 -56 -19 -11
-18 -15 -30 -10 -27 5 3 11 -1 14 -9 4 -10 1 -12 -10 -8 -10 4 -14 2 -10 -4 4
-6 1 -14 -5 -16 -10 -4 -9 -8 2 -16 12 -9 11 -11 -7 -11 -17 0 -21 -4 -16 -17
4 -11 3 -14 -5 -9 -8 5 -14 -3 -18 -23 -4 -18 -11 -28 -17 -24 -6 4 -8 0 -4
-11 4 -10 -1 -24 -12 -35 -11 -11 -17 -22 -13 -25 3 -3 0 -6 -6 -6 -7 0 -12
-5 -12 -11 0 -5 6 -7 13 -4 6 4 3 -2 -9 -12 -11 -10 -20 -28 -19 -40 1 -12 -3
-21 -9 -20 -9 2 -11 -2 -15 -34 0 -5 -7 -7 -13 -3 -8 5 -7 0 2 -11 14 -17 13
-18 -2 -12 -15 5 -16 2 -8 -18 7 -19 6 -23 -5 -18 -10 3 -15 -1 -15 -13 0 -9
-8 -26 -17 -37 -10 -11 -13 -18 -7 -14 6 3 11 0 11 -7 0 -8 -7 -12 -15 -8 -10
3 -13 1 -8 -6 4 -7 3 -12 -3 -12 -6 0 -7 -7 -4 -17 4 -11 3 -14 -5 -9 -8 5
-12 0 -12 -14 0 -12 -4 -18 -10 -15 -6 3 -7 -1 -4 -9 3 -9 2 -16 -3 -16 -5 0
-9 -9 -10 -21 -1 -12 -10 -28 -20 -36 -10 -8 -12 -12 -6 -8 9 4 11 1 7 -9 -3
-9 -10 -14 -14 -11 -11 7 -22 -24 -13 -38 4 -7 0 -8 -12 -3 -15 5 -16 4 -5 -9
10 -12 9 -16 -3 -21 -9 -3 -13 -12 -10 -21 4 -11 2 -14 -5 -9 -7 4 -12 3 -12
-3 0 -5 6 -12 13 -14 8 -4 7 -6 -3 -6 -18 -1 -45 -40 -41 -60 1 -8 -10 -24
-26 -37 -24 -20 -26 -25 -13 -34 12 -8 12 -10 1 -10 -9 0 -11 -7 -8 -21 4 -17
3 -18 -9 -8 -12 10 -13 9 -8 -5 4 -9 1 -16 -6 -16 -9 0 -9 -4 1 -17 10 -11 10
-14 2 -9 -8 4 -13 2 -13 -4 0 -6 -5 -8 -12 -4 -8 5 -7 0 2 -11 8 -10 11 -16 5
-13 -5 3 -18 -5 -28 -18 -10 -13 -14 -24 -8 -24 5 0 12 6 14 13 4 9 6 9 6 -1
1 -7 -6 -15 -14 -18 -8 -4 -12 -10 -9 -15 3 -5 1 -9 -5 -9 -14 0 -42 -60 -34
-73 4 -7 0 -8 -12 -3 -15 5 -16 4 -5 -9 9 -11 9 -15 1 -15 -7 0 -9 -4 -6 -10
3 -5 1 -10 -4 -10 -6 0 -11 -9 -11 -21 0 -11 -4 -17 -10 -14 -5 3 -10 -1 -10
-10 0 -10 5 -13 13 -9 6 4 0 -6 -15 -23 -16 -16 -28 -37 -28 -47 0 -9 -4 -14
-10 -11 -9 5 -15 -15 -11 -38 1 -4 -6 -10 -15 -14 -13 -5 -13 -7 -2 -14 10 -7
9 -9 -4 -9 -12 0 -15 -5 -11 -17 4 -11 3 -14 -5 -9 -13 8 -28 -37 -17 -53 4
-7 0 -8 -11 -4 -12 4 -15 3 -10 -5 4 -7 2 -12 -4 -12 -6 0 -8 -5 -5 -10 3 -6
-2 -13 -11 -17 -16 -6 -16 -7 2 -14 13 -5 14 -8 4 -9 -17 -1 -57 -50 -40 -50
5 0 10 5 10 12 0 6 3 8 6 5 9 -9 -16 -38 -27 -31 -5 3 -6 -1 -3 -9 3 -8 1 -18
-5 -22 -15 -9 -14 -28 2 -19 7 4 9 3 4 -2 -5 -5 -13 -10 -18 -10 -22 -3 -23
-5 -9 -14 13 -8 12 -10 -3 -10 -9 0 -16 -3 -16 -7 3 -20 -2 -34 -10 -28 -6 3
-8 -4 -6 -16 3 -14 0 -19 -9 -16 -8 3 -13 -1 -12 -11 1 -17 -1 -17 -61 -10 -9
1 -9 7 -1 21 6 12 6 17 0 13 -5 -3 -16 2 -23 11 -8 9 -9 14 -3 10 6 -3 11 0
11 7 0 8 -7 12 -15 8 -11 -4 -13 -1 -7 8 5 8 1 18 -10 27 -14 10 -15 13 -4 14
8 0 6 4 -6 9 -12 5 -14 9 -6 9 10 1 7 7 -8 20 -12 11 -23 29 -24 40 -1 12 -6
20 -12 17 -7 -2 -11 7 -10 25 1 18 -3 29 -11 29 -7 0 -16 5 -20 12 -4 7 -3 8
4 4 7 -4 12 -2 12 3 0 6 -7 11 -15 11 -9 0 -12 6 -8 17 4 11 3 14 -5 9 -11 -6
-17 5 -13 27 0 4 -4 7 -10 7 -8 0 -7 6 2 17 10 11 10 14 2 9 -13 -7 -17 4 -14
33 2 7 -2 10 -8 6 -6 -3 -11 1 -11 10 0 10 -5 13 -12 9 -8 -5 -9 -2 -5 9 4 11
1 17 -8 17 -9 0 -15 10 -15 26 0 17 -4 23 -12 18 -8 -5 -7 0 2 11 8 10 10 16
5 13 -6 -4 -17 -3 -25 3 -12 7 -12 9 4 9 15 0 16 3 6 15 -6 8 -8 20 -4 27 4 7
4 10 -1 6 -12 -11 -35 11 -35 33 0 11 -5 19 -11 19 -5 0 -7 5 -4 10 3 6 2 10
-3 10 -6 0 -8 8 -5 19 3 11 -3 24 -15 32 -10 8 -18 22 -16 32 1 11 -2 17 -10
14 -7 -3 -13 4 -14 16 0 12 -6 23 -12 25 -5 2 -10 12 -10 22 0 10 -4 22 -10
25 -5 3 -10 17 -10 30 0 15 -10 31 -24 41 -15 9 -22 21 -19 30 3 8 0 14 -7 14
-9 0 -9 4 1 18 7 9 9 14 5 10 -13 -11 -36 11 -36 33 0 11 -7 19 -17 19 -9 0
-13 3 -10 7 4 3 -1 16 -10 27 -17 20 -17 20 0 7 15 -12 17 -12 11 3 -3 9 -10
16 -15 16 -4 0 -5 7 -2 17 4 11 3 14 -5 9 -8 -5 -12 0 -12 14 0 14 -4 19 -12
14 -8 -5 -8 -2 1 10 12 15 12 17 0 14 -8 -2 -13 4 -13 14 1 10 -2 16 -6 13 -4
-3 -14 3 -21 12 -10 12 -10 14 -1 9 6 -4 12 -2 12 3 0 6 -7 11 -15 11 -13 0
-14 4 -5 20 8 16 8 20 -2 18 -7 -2 -12 3 -10 10 1 6 -3 12 -9 12 -5 0 -7 5 -4
10 3 6 1 10 -5 10 -6 0 -8 5 -5 10 3 6 -1 10 -9 10 -9 0 -16 8 -16 19 0 11 -6
22 -12 24 -9 4 -8 6 2 7 10 0 6 6 -10 16 -14 8 -17 13 -8 10 12 -3 15 -1 11
10 -3 7 -9 14 -14 14 -5 0 -9 9 -9 20 0 11 -6 20 -12 20 -9 0 -8 4 2 10 12 8
12 10 -5 10 -17 0 -17 2 -5 10 13 8 12 10 -3 10 -10 0 -15 5 -12 10 3 6 0 10
-7 10 -9 0 -9 3 2 10 13 8 12 10 -2 10 -14 0 -18 8 -18 33 0 24 -3 28 -10 17
-8 -12 -10 -11 -10 6 0 11 -4 24 -10 30 -5 5 -11 18 -13 29 -5 31 -51 105 -65
105 -7 0 -10 5 -7 10 4 6 12 8 18 4 7 -3 4 1 -5 9 -10 8 -19 23 -21 33 -3 25
-16 44 -28 44 -5 0 -9 -5 -9 -11z m25 -8 c3 -5 2 -12 -3 -15 -5 -3 -9 1 -9 9
0 17 3 19 12 6z m1505 -871 c0 -5 -5 -10 -11 -10 -5 0 -7 5 -4 10 3 6 8 10 11
10 2 0 4 -4 4 -10z m-1020 -100 c0 -5 -2 -10 -4 -10 -3 0 -8 5 -11 10 -3 6 -1
10 4 10 6 0 11 -4 11 -10z m95 -189 c3 -5 2 -12 -3 -15 -5 -3 -9 1 -9 9 0 17
3 19 12 6z"/>
<path d="M4900 4840 c-9 -6 -10 -10 -3 -10 6 0 15 5 18 10 8 12 4 12 -15 0z"/>
<path d="M3995 3590 c-3 -5 1 -10 10 -10 9 0 13 5 10 10 -3 6 -8 10 -10 10 -2
0 -7 -4 -10 -10z"/>
</g>
</svg>
